<svg width="80" height="80" viewBox="0 0 80 80" fill="none" xmlns="http://www.w3.org/2000/svg">
<g filter="url(#filter0_d_1131_1806)">
<rect x="20" y="15" width="40" height="40" rx="7" fill="#F9F9F9" fill-opacity="0.79"/>
</g>
<path fill-rule="evenodd" clip-rule="evenodd" d="M33.9971 33.3035H37.3H42.7H46.0029L44.8687 40.6426C44.8057 41.0838 44.4277 41.408 43.9867 41.408H36.0128C35.5718 41.408 35.1939 41.0838 35.1309 40.6426L33.9971 33.3035ZM43.6 30.602V31.5025H46.0029H48.1C48.595 31.5025 49 31.9077 49 32.403C49 32.8983 48.595 33.3035 48.1 33.3035H47.8029C47.8029 33.3936 47.7939 33.4836 47.7849 33.5736L46.6511 40.9127C46.4531 42.2275 45.3187 43.2 43.9867 43.2H36.0128C34.6808 43.2 33.5469 42.2275 33.3489 40.9127L32.2151 33.5736C32.2061 33.4836 32.1971 33.3936 32.1971 33.3035H31.9C31.405 33.3035 31 32.8983 31 32.403C31 31.9077 31.405 31.5025 31.9 31.5025H33.9971H36.4V30.602C36.4 28.6119 38.011 27 40 27C41.989 27 43.6 28.6119 43.6 30.602ZM38.2 30.602V31.5025H41.8V30.602C41.8 29.6024 40.99 28.801 40 28.801C39.01 28.801 38.2 29.6115 38.2 30.602ZM40 39.607C39.505 39.607 39.1 39.2018 39.1 38.7065V36.005C39.1 35.5097 39.505 35.1045 40 35.1045C40.495 35.1045 40.9 35.5097 40.9 36.005V38.7065C40.9 39.2018 40.495 39.607 40 39.607ZM36.4 38.7065C36.4 39.2018 36.805 39.607 37.3 39.607C37.795 39.607 38.2 39.2018 38.2 38.7065V36.005C38.2 35.5097 37.795 35.1045 37.3 35.1045C36.805 35.1045 36.4 35.5097 36.4 36.005V38.7065ZM41.8 38.7065C41.8 39.2018 42.205 39.607 42.7 39.607C43.195 39.607 43.6 39.2018 43.6 38.7065V36.005C43.6 35.5097 43.195 35.1045 42.7 35.1045C42.205 35.1045 41.8 35.5097 41.8 36.005V38.7065Z" fill="#3F3F3F"/>
<defs>
<filter id="filter0_d_1131_1806" x="0" y="0" width="80" height="80" filterUnits="userSpaceOnUse" color-interpolation-filters="sRGB">
<feFlood flood-opacity="0" result="BackgroundImageFix"/>
<feColorMatrix in="SourceAlpha" type="matrix" values="0 0 0 0 0 0 0 0 0 0 0 0 0 0 0 0 0 0 127 0" result="hardAlpha"/>
<feOffset dy="5"/>
<feGaussianBlur stdDeviation="10"/>
<feColorMatrix type="matrix" values="0 0 0 0 0 0 0 0 0 0 0 0 0 0 0 0 0 0 0.05 0"/>
<feBlend mode="normal" in2="BackgroundImageFix" result="effect1_dropShadow_1131_1806"/>
<feBlend mode="normal" in="SourceGraphic" in2="effect1_dropShadow_1131_1806" result="shape"/>
</filter>
</defs>
</svg>
