<?xml version="1.0" standalone="no"?>
<!DOCTYPE svg PUBLIC "-//W3C//DTD SVG 20010904//EN"
 "http://www.w3.org/TR/2001/REC-SVG-20010904/DTD/svg10.dtd">
<svg version="1.0" xmlns="http://www.w3.org/2000/svg"
 width="97.000000pt" height="78.000000pt" viewBox="0 0 97.000000 78.000000"
 preserveAspectRatio="xMidYMid meet">

<g transform="translate(0.000000,78.000000) scale(0.100000,-0.100000)"
fill="#000000" stroke="none">
<path d="M0 390 l0 -390 485 0 485 0 0 390 0 390 -485 0 -485 0 0 -390z m522
337 c65 -32 141 -110 169 -172 l20 -45 58 0 c69 0 118 -15 131 -40 17 -32 11
-70 -15 -95 -21 -22 -33 -25 -95 -25 -48 0 -72 -4 -74 -12 -32 -112 -102 -200
-194 -245 -50 -25 -68 -28 -152 -28 -85 0 -101 3 -148 28 -75 40 -133 96 -168
164 -26 52 -29 68 -29 153 0 112 18 161 85 234 81 88 154 117 276 113 64 -3
93 -9 136 -30z"/>
<path d="M295 726 c-68 -17 -104 -37 -152 -86 -101 -100 -125 -247 -62 -377
29 -60 117 -138 180 -158 185 -62 389 50 427 232 l8 38 79 3 c66 2 83 6 97 23
9 11 14 28 11 37 -11 33 -36 42 -114 42 l-76 0 -18 45 c-57 151 -227 240 -380
201z m202 -65 c171 -87 209 -309 75 -447 -133 -137 -366 -95 -448 81 -27 56
-32 148 -12 206 26 78 93 145 175 175 53 20 157 13 210 -15z"/>
<path d="M340 608 c0 -13 8 -33 18 -46 l17 -22 19 35 c15 28 17 38 7 48 -9 9
-14 9 -20 -2 -6 -9 -11 -10 -15 -2 -12 19 -26 12 -26 -11z"/>
<path d="M330 552 c0 -18 30 -82 39 -82 12 0 52 78 43 84 -5 3 -15 -7 -21 -21
l-12 -27 -24 30 c-13 16 -24 23 -25 16z"/>
<path d="M398 467 l-25 -51 -28 48 c-22 37 -30 45 -37 33 -12 -22 6 -61 40
-86 l30 -21 31 35 c29 34 41 78 23 89 -5 3 -20 -18 -34 -47z"/>
<path d="M425 411 c-36 -40 -37 -43 -10 -25 l30 19 -25 -35 c-24 -35 -24 -35
-1 -15 27 23 54 71 49 88 -2 7 -21 -8 -43 -32z"/>
<path d="M270 423 c0 -11 15 -32 33 -49 17 -16 26 -22 20 -14 -22 24 -14 33
12 16 39 -26 29 -12 -20 28 -38 31 -45 34 -45 19z"/>
<path d="M220 386 c0 -56 19 -77 103 -110 52 -21 47 -9 -7 14 -41 17 -68 40
-48 40 5 0 29 -7 52 -15 36 -13 41 -13 30 0 -6 7 -27 19 -45 25 -19 6 -46 25
-60 41 l-25 31 0 -26z"/>
<path d="M456 364 c-39 -35 -43 -42 -22 -34 43 16 42 12 -3 -21 -58 -41 -44
-49 17 -10 46 29 72 64 72 96 0 23 -11 18 -64 -31z"/>
<path d="M539 340 c-13 -29 -28 -43 -72 -64 -31 -14 -59 -31 -62 -36 -9 -14
-4 -13 50 11 25 11 49 18 52 15 4 -3 -18 -17 -48 -30 -66 -31 -59 -33 15 -5
65 24 96 58 96 105 0 47 -12 48 -31 4z"/>
<path d="M180 334 c0 -56 40 -89 185 -153 6 -2 1 6 -9 18 -11 11 -35 25 -55
31 -40 11 -79 35 -70 44 5 6 93 -25 105 -37 13 -13 27 -7 15 7 -6 7 -39 23
-72 35 -44 17 -65 31 -80 54 l-19 32 0 -31z"/>
</g>
</svg>
