<svg width="20" height="18" viewBox="0 0 20 18" fill="none" xmlns="http://www.w3.org/2000/svg">
<path id="Fill 3747" fill-rule="evenodd" clip-rule="evenodd" d="M17.6287 17.6627C18.0862 18.1124 18.8251 18.1124 19.2826 17.6627C19.74 17.213 19.74 16.5047 19.2826 16.055L15.6699 12.5921C16.6904 11.2767 17.3003 9.64647 17.3003 7.88132C17.3003 3.53029 13.6173 0 9.07796 0C4.53866 0 0.855621 3.53029 0.855621 7.88132C0.855621 12.2324 4.53866 15.7626 9.07796 15.7626C10.9195 15.7626 12.632 15.178 14.0043 14.1886L17.6287 17.6627ZM3.20151 7.88132C3.20151 4.77826 5.8289 2.24859 9.07796 2.24859C12.3153 2.24859 14.9427 4.76702 14.9427 7.88132C14.9427 10.9844 12.3153 13.5141 9.07796 13.5141C5.84063 13.5028 3.20151 10.9844 3.20151 7.88132Z" fill="#BBBBBC"/>
</svg>
